#define 15b3c64bc8db4983b1cd64d27e918c42vCG4kv08vY1UGNTw_width 12
#define 15b3c64bc8db4983b1cd64d27e918c42vCG4kv08vY1UGNTw_height 12
static char 15b3c64bc8db4983b1cd64d27e918c42vCG4kv08vY1UGNTw_bits[] = {
  0x00, 0x00, 0x00, 0x00, 0xF8, 0x03, 0x08, 0x02, 0xA8, 0x02, 0x08, 0x02, 
  0x50, 0x01, 0x50, 0x01, 0xF0, 0x01, 0x00, 0x00, 0x00, 0x00, 0x00, 0x00, 
  };
