#define 7fda954887f94134a838fd2daaf2f3bctwOCHP9SYw3fxKUk_width 12
#define 7fda954887f94134a838fd2daaf2f3bctwOCHP9SYw3fxKUk_height 12
static char 7fda954887f94134a838fd2daaf2f3bctwOCHP9SYw3fxKUk_bits[] = {
  0x00, 0x00, 0x00, 0x00, 0xF8, 0x01, 0x04, 0x02, 0x94, 0x02, 0x94, 0x02, 
  0x04, 0x02, 0x08, 0x01, 0x08, 0x01, 0xF0, 0x00, 0x00, 0x00, 0x00, 0x00, 
  };
