#define 7c24602093eb4c8eb481de1991727abf3kO44ADqR538Fl1X_width 12
#define 7c24602093eb4c8eb481de1991727abf3kO44ADqR538Fl1X_height 12
static char 7c24602093eb4c8eb481de1991727abf3kO44ADqR538Fl1X_bits[] = {
  0x00, 0x00, 0x00, 0x00, 0xF8, 0x01, 0xFC, 0x03, 0x6C, 0x03, 0x6C, 0x03, 
  0xFC, 0x03, 0xF8, 0x01, 0xF0, 0x00, 0xF0, 0x00, 0x00, 0x00, 0x00, 0x00, 
  };
