#define ab5afa32250d4dd9eb74439c07045e3fMnsbPFgrlb9HRGyV_width 12
#define ab5afa32250d4dd9eb74439c07045e3fMnsbPFgrlb9HRGyV_height 12
static char ab5afa32250d4dd9eb74439c07045e3fMnsbPFgrlb9HRGyV_bits[] = {
  0xF0, 0x00, 0xF8, 0x01, 0xFC, 0x03, 0xFC, 0x03, 0xFC, 0x03, 0x64, 0x02, 
  0x64, 0x02, 0x9C, 0x03, 0xF8, 0x01, 0xF0, 0x00, 0x00, 0x00, 0x00, 0x00, 
  };
