#define e9d4bb99ca13467da9e1a1ef76617f84qcayI0Z2vglUKVsY_width 12
#define e9d4bb99ca13467da9e1a1ef76617f84qcayI0Z2vglUKVsY_height 12
static char e9d4bb99ca13467da9e1a1ef76617f84qcayI0Z2vglUKVsY_bits[] = {
  0x00, 0x00, 0x00, 0x00, 0xF8, 0x01, 0xFC, 0x03, 0x6C, 0x03, 0x6C, 0x03, 
  0xFC, 0x03, 0xF8, 0x01, 0xF8, 0x01, 0xF0, 0x00, 0x00, 0x00, 0x00, 0x00, 
  };
