#define 8bd6b0bfb82148339147680560312fd3_width 12
#define 8bd6b0bfb82148339147680560312fd3_height 12
static char 8bd6b0bfb82148339147680560312fd3_bits[] = {
  0x5B, 0x0F, 0x5B, 0x0F, 0x5B, 0x01, 0x7B, 0x01, 0x7B, 0x07, 0x6B, 0x07, 
  0x6B, 0x01, 0x6B, 0x01, 0x6B, 0x0F, 0x6B, 0x0F, 0x00, 0x00, 0x00, 0x00, 
  };
