#define 191a5d357b9046b8adf5c67dd8e6ffd3_width 12
#define 191a5d357b9046b8adf5c67dd8e6ffd3_height 12
static char 191a5d357b9046b8adf5c67dd8e6ffd3_bits[] = {
  0xE7, 0x0C, 0xEF, 0x0D, 0xAF, 0x0D, 0xAD, 0x0D, 0xAD, 0x0D, 0xED, 0x0C, 
  0xED, 0x0D, 0xAF, 0x0D, 0xAF, 0x0D, 0xA7, 0x0D, 0x00, 0x00, 0x00, 0x00, 
  };
